<?xml version="1.0" encoding="UTF-8" standalone="no"?>
<svg width="318px" height="344px" viewBox="0 0 318 344" version="1.1" xmlns="http://www.w3.org/2000/svg" xmlns:xlink="http://www.w3.org/1999/xlink" xmlns:sketch="http://www.bohemiancoding.com/sketch/ns">
    <!-- Generator: Sketch 3.3.2 (12043) - http://www.bohemiancoding.com/sketch -->
    <title>document9 + document9 copy + link23</title>
    <desc>Created with Sketch.</desc>
    <defs></defs>
    <g id="Page-1" stroke="none" stroke-width="1" fill="none" fill-rule="evenodd" sketch:type="MSPage">
        <g id="document9-+-document9-copy-+-link23" sketch:type="MSLayerGroup" fill="#58595B">
            <g id="document9" transform="translate(55.000000, 36.000000)" sketch:type="MSShapeGroup">
                <g id="Layer_5_29_">
                    <g id="Group">
                        <path d="M250.401,74.521 L171.278,9.454 C164.727,4.062 153.389,0 144.907,0 L20.442,0 C9.682,0 0.926,8.754 0.926,19.516 L0.926,287.355 C0.926,307.454 19.936,307.454 20.389,307.454 L243.012,307.454 C253.774,307.454 262.528,298.699 262.528,287.937 L262.528,100.198 C262.528,91.247 257.313,80.207 250.401,74.521 L250.401,74.521 Z M243.012,292.999 L19.022,292.999 C18.221,292.999 15.379,292.77 15.379,288.817 L15.379,19.515 C15.379,16.77 17.699,14.452 20.442,14.452 L144.906,14.452 C147.013,14.452 151.416,15.57 151.416,21.59 L151.416,80.832 C151.416,91.593 160.17,100.348 170.932,100.348 L244.455,100.348 C245.797,100.348 248.068,101.27 248.068,104.517 C248.068,104.568 248.076,287.936 248.076,287.936 C248.076,290.729 245.805,292.999 243.012,292.999 L243.012,292.999 Z" id="Shape"></path>
                    </g>
                </g>
            </g>
            <g id="document9-copy" transform="translate(109.000000, 135.500000) scale(1, -1) translate(-109.000000, -135.500000) " sketch:type="MSShapeGroup">
                <g id="Layer_5_29_">
                    <g id="Group">
                        <path d="M44.7675589,0 L16.9443194,0 C8.02538403,0 0.767558935,7.70238312 0.767558935,17.1715455 L0.767558935,252.835081 C0.767558935,270.519591 16.5248973,270.519591 16.9003878,270.519591 L201.432,270.519591 C210.352593,270.519591 217.60876,262.816328 217.60876,253.347166 L217.60876,244 L205.629152,244 C205.629394,249.89428 205.629536,253.346286 205.629536,253.346286 C205.629536,255.803763 203.74711,257.801068 201.432,257.801068 L15.7672852,257.801068 C15.1033384,257.801068 12.7476122,257.599578 12.7476122,254.121451 L12.7476122,17.1706656 C12.7476122,14.7554221 14.670654,12.7158831 16.9443194,12.7158831 L44.7675589,12.7158831 L44.7675589,9.32587341e-15 Z" id="Shape"></path>
                    </g>
                </g>
            </g>
            <g id="link23" transform="translate(104.000000, 152.000000)" sketch:type="MSShapeGroup">
                <path d="M143.571773,70.7179608 L114.349022,99.8675294 C98.220393,115.970536 72.0556507,115.970536 55.9242969,99.8675294 C53.3833362,97.3392418 51.3955284,94.4904575 49.6498952,91.5526275 L63.2280262,78.005098 C63.8734847,77.3556078 64.6705153,76.983451 65.4321223,76.5450196 C66.3708472,79.7452288 68.0095284,82.7748235 70.5317555,85.2918954 C78.5865328,93.3355817 91.6932576,93.324366 99.7432664,85.2918954 L128.956821,56.1430065 C137.017729,48.1003399 137.017729,35.0252288 128.956821,26.9886797 C120.906472,18.9521307 107.803153,18.9521307 99.7432664,26.9886797 L89.3549607,37.3655686 C80.9248297,34.0902484 71.8424279,33.2096471 63.0008384,34.5025098 L85.1375109,12.4147451 C101.275677,-3.68520261 127.433607,-3.68520261 143.571773,12.4147451 C159.702105,28.5140131 159.702105,54.6190327 143.571773,70.7179608 L143.571773,70.7179608 Z M66.3197555,118.649725 L55.9239563,129.026614 C47.8698603,137.059085 34.7624541,137.059085 26.7069956,129.026614 C18.6522183,120.982928 18.6522183,107.907817 26.7069956,99.8675294 L55.9239563,70.7179608 C63.984524,62.6759739 77.0830742,62.6759739 85.1371703,70.7179608 C87.653607,73.2295948 89.2939913,76.2585098 90.2415721,79.4546405 C91.007607,79.0104314 91.7947598,78.6494902 92.4398777,78.0047582 L106.016987,64.4626667 C104.282594,61.513281 102.284568,58.6746928 99.7425852,56.1436863 C83.6153188,40.0437386 57.4481921,40.0437386 41.3130917,56.1436863 L12.100559,85.2935948 C-4.03283843,101.398301 -4.03283843,127.495843 12.100559,143.59919 C28.2356594,159.694039 54.396655,159.694039 70.5314148,143.59919 L92.6738777,121.506667 C83.8275197,122.807007 74.7427336,121.918928 66.3197555,118.649725 L66.3197555,118.649725 Z" id="Shape"></path>
            </g>
        </g>
    </g>
</svg>