<?xml version="1.0" encoding="UTF-8" standalone="no"?>
<svg width="311px" height="397px" viewBox="0 0 311 397" version="1.1" xmlns="http://www.w3.org/2000/svg" xmlns:xlink="http://www.w3.org/1999/xlink" xmlns:sketch="http://www.bohemiancoding.com/sketch/ns">
    <!-- Generator: Sketch 3.3.2 (12043) - http://www.bohemiancoding.com/sketch -->
    <title>Shape</title>
    <desc>Created with Sketch.</desc>
    <defs></defs>
    <g id="Page-1" stroke="none" stroke-width="1" fill="none" fill-rule="evenodd" sketch:type="MSPage">
        <g id="palm1" sketch:type="MSLayerGroup" transform="translate(155.500000, 198.500000) scale(-1, 1) translate(-155.500000, -198.500000) " fill="#674CA4">
            <g id="Layer_5_86_" sketch:type="MSShapeGroup">
                <path d="M291.86,69.735 C281.808,69.735 273.658,77.884 273.658,87.937 L273.658,167.271 C273.658,171.636 269.735,175.177 264.894,175.177 C260.052,175.177 256.129,171.636 256.129,167.271 L256.129,54.766 C256.114,42.695 246.327,32.915 234.259,32.915 C222.176,32.915 212.384,42.708 212.384,54.788 C212.384,54.788 212.444,167.204 212.384,167.231 L212.384,167.27 C212.384,171.635 208.686,175.176 204.119,175.176 C199.556,175.176 195.854,171.635 195.854,167.27 L195.854,23.688 C195.843,10.604 185.234,0 172.149,0 C159.052,0 148.438,10.614 148.438,23.711 C148.438,23.711 148.414,166.091 148.414,167.742 C148.168,171.888 144.738,175.178 140.53,175.178 C136.163,175.178 132.623,171.637 132.623,167.272 L132.623,44.415 C132.623,31.319 122.009,20.705 108.915,20.705 C95.819,20.705 85.204,31.319 85.204,44.415 C84.985,216.209 84.986,216.209 84.97,230.434 C84.97,235.803 85.074,247.339 82.486,249.27 C80.337,250.874 77.474,248.881 74.009,244.204 C66.146,233.587 54.793,216.723 46.525,205.452 C38.687,194.766 26.307,183.164 12.254,190.85 C-1.11,198.161 -3.374,216.893 5.663,229.163 C5.663,229.163 64.211,315.08 84.219,344.951 C95.931,362.436 99.073,367.977 103.111,373.722 C118.499,395.608 127.086,396.292 151.902,396.292 L254.738,396.292 C310.061,396.292 310.061,330.625 310.061,302.599 L310.061,97.943 C310.061,77.884 301.913,69.735 291.86,69.735 L291.86,69.735 Z" id="Shape"></path>
            </g>
        </g>
    </g>
</svg>