<?xml version="1.0" encoding="UTF-8" standalone="no"?>
<svg width="191px" height="351px" viewBox="0 0 191 351" version="1.1" xmlns="http://www.w3.org/2000/svg" xmlns:xlink="http://www.w3.org/1999/xlink" xmlns:sketch="http://www.bohemiancoding.com/sketch/ns">
    <!-- Generator: Sketch 3.3.2 (12043) - http://www.bohemiancoding.com/sketch -->
    <title>$</title>
    <desc>Created with Sketch.</desc>
    <defs></defs>
    <g id="Page-1" stroke="none" stroke-width="1" fill="none" fill-rule="evenodd" sketch:type="MSPage">
        <g id="Spend" sketch:type="MSLayerGroup" transform="translate(-12.000000, -61.000000)" fill="#58595B">
            <g id="Page-1" sketch:type="MSShapeGroup">
                <path d="M83.4373446,411.812422 L100.499813,411.812422 C107.812299,411.812422 112.49979,405.999933 113.062289,400.187444 L115.312285,372.624995 C171.374681,368.687502 202.874622,331.562572 202.874622,285.062658 C202.874622,238.187746 164.437194,225.06277 128.62476,214.18779 L135.187248,136.562935 C154.499712,141.062926 167.437188,152.125406 174.937174,152.125406 C179.999665,152.125406 182.999659,149.68791 186.562153,144.62542 L197.812132,127.562952 C183.562158,114.062977 164.812193,102.437998 138.374742,98.1255064 L141.562236,61.1880752 L124.499768,61.1880752 C117.187282,61.1880752 112.49979,66.8130647 111.937292,72.8130536 L109.874795,96.4380095 C55.1248973,98.875505 24.1874549,136.000436 24.1874549,174.062865 C24.1874549,225.06277 61.6873851,239.312743 97.1248191,249.250225 L89.9998324,333.250068 C62.2498841,328.187578 49.8749071,309.812612 38.6249281,309.812612 C34.1249364,309.812612 29.6249448,312.437607 27.1874494,316.1876 L12.9374759,337.375061 C30.9374424,355.187528 57.5623928,367.750004 86.8123383,371.687497 L83.4373446,411.812422 Z M158.999704,292.187645 C158.999704,315.437602 145.12473,330.250074 118.687279,333.812567 L125.062267,257.687709 C144.562231,264.250197 158.999704,273.25018 158.999704,292.187645 L158.999704,292.187645 Z M67.8748736,169.562873 C67.8748736,153.062904 78.937353,139.37543 106.499802,135.812936 L100.687312,205.187807 C81.7498477,198.25032 67.8748736,188.312838 67.8748736,169.562873 L67.8748736,169.562873 Z" id="$"></path>
            </g>
        </g>
    </g>
</svg>